<svg width="100" height="100" viewBox="0 0 100 100" fill="none" xmlns="http://www.w3.org/2000/svg">
<g clip-path="url(#clip0_1_2)">
<path d="M98 13.5L100.457 15.9929L102.167 14.307L101.21 12.1045L98 13.5ZM65.5 11L67.7163 13.7089L67.7972 13.6427L67.874 13.5718L65.5 11ZM54.5 20L52.2685 22.6964L54.4873 24.5326L56.7163 22.7089L54.5 20ZM40 8L42.2315 5.30362L42.0276 5.13491L41.8007 4.99877L40 8ZM2.5 17.5L0.277131 14.7965L-2.52376 17.0995L-0.123156 19.8171L2.5 17.5ZM29 47.5L31.1387 50.2706L34.0988 47.9855L31.6232 45.1829L29 47.5ZM0.5 69.5L-1.63868 66.7294L-4.78871 69.161L-1.97487 71.9749L0.5 69.5ZM25 94L22.5251 96.4749L25.3082 99.258L27.7471 96.1688L25 94ZM47.5 65.5L49.9533 63.0037L47.1705 60.2689L44.7529 63.3312L47.5 65.5ZM76.5 94L74.0467 96.4963L76.5214 98.9283L78.9749 96.4749L76.5 94ZM87.5 55.5L90.4346 53.5925C90.3389 53.4453 90.2322 53.3055 90.1156 53.1743L87.5 55.5ZM101.21 12.1045C97.846 4.36779 89.4101 2.12102 82.2798 2.18765C78.5746 2.22228 74.8366 2.85958 71.5527 3.90799C68.3216 4.93954 65.264 6.45464 63.126 8.42819L67.874 13.5718C68.986 12.5454 70.9909 11.4355 73.6817 10.5764C76.3197 9.73417 79.3629 9.21522 82.3452 9.18735C88.5899 9.12899 93.154 11.1322 94.7903 14.8955L101.21 12.1045ZM63.2837 8.29115L52.2837 17.2912L56.7163 22.7089L67.7163 13.7089L63.2837 8.29115ZM56.7315 17.3036L42.2315 5.30362L37.7685 10.6964L52.2685 22.6964L56.7315 17.3036ZM41.8007 4.99877C32.6824 -0.472245 21.8051 2.62862 14.1449 6.20336C10.176 8.05552 6.72825 10.1923 4.28191 11.8558C3.05439 12.6905 2.06821 13.4134 1.38259 13.9328C1.03955 14.1927 0.771056 14.4022 0.584499 14.5498C0.4912 14.6236 0.418331 14.682 0.366812 14.7236C0.34105 14.7444 0.32062 14.761 0.305637 14.7732C0.298145 14.7793 0.292014 14.7843 0.287259 14.7882C0.284881 14.7902 0.282847 14.7918 0.281158 14.7932C0.280315 14.7939 0.279306 14.7947 0.278885 14.7951C0.277965 14.7958 0.277131 14.7965 2.5 17.5C4.72287 20.2035 4.72221 20.204 4.72163 20.2045C4.72155 20.2046 4.72106 20.205 4.7209 20.2051C4.72058 20.2054 4.7206 20.2054 4.72095 20.2051C4.72166 20.2045 4.72371 20.2028 4.72709 20.2001C4.73385 20.1945 4.74592 20.1847 4.76319 20.1708C4.79773 20.1429 4.85304 20.0986 4.9282 20.0391C5.07855 19.9201 5.30811 19.7409 5.6096 19.5125C6.21304 19.0553 7.10186 18.4033 8.21809 17.6442C10.4593 16.1202 13.574 14.1945 17.1051 12.5466C24.4449 9.12138 32.3176 7.47224 38.1993 11.0012L41.8007 4.99877ZM-0.123156 19.8171L26.3768 49.8171L31.6232 45.1829L5.12316 15.1829L-0.123156 19.8171ZM26.8613 44.7294L-1.63868 66.7294L2.63868 72.2706L31.1387 50.2706L26.8613 44.7294ZM-1.97487 71.9749L22.5251 96.4749L27.4749 91.5251L2.97487 67.0251L-1.97487 71.9749ZM27.7471 96.1688L50.2471 67.6688L44.7529 63.3312L22.2529 91.8313L27.7471 96.1688ZM45.0467 67.9963L74.0467 96.4963L78.9533 91.5037L49.9533 63.0037L45.0467 67.9963ZM78.9749 96.4749C83.657 91.7928 88.2907 84.1847 90.9368 76.4447C93.5128 68.91 94.6119 60.0192 90.4346 53.5925L84.5654 57.4075C86.8881 60.9808 86.7372 67.09 84.3132 74.1803C81.9593 81.0653 77.843 87.7073 74.0251 91.5251L78.9749 96.4749ZM65.9567 49.9929L74.9567 41.1233L70.0433 36.1376L61.0433 45.0071L65.9567 49.9929ZM74.9567 41.1233L100.457 15.9929L95.5433 11.0071L70.0433 36.1376L74.9567 41.1233ZM90.1156 53.1743L75.1156 36.3047L69.8844 40.9561L84.8844 57.8257L90.1156 53.1743Z" fill="#CAC238"/>
</g>
<defs>
<clipPath id="clip0_1_2">
<rect width="100" height="100" fill="white"/>
</clipPath>
</defs>
</svg>
