<svg width="100" height="100" viewBox="0 0 100 100" fill="none" xmlns="http://www.w3.org/2000/svg">
<circle cx="22" cy="30" r="15.5" stroke="#CAC238" stroke-width="7"/>
<circle cx="78" cy="30" r="15.5" stroke="#CAC238" stroke-width="7"/>
<path d="M36.5 23.5H63.5M8.50557 39.5C4.24209 49.9746 6.70634 63.4414 12.1782 73M90.4249 41C94.4738 51.2354 93.1844 63.8924 87.9888 73M12.1782 73C16.1674 79.9686 21.7552 84.8599 27.5 85H69.5C77.5699 85 83.956 80.0692 87.9888 73M12.1782 73C37.5 55 62.5 54.5 87.9888 73M17 29.5H26M72.5 29.5H81" stroke="#CAC238" stroke-width="7" stroke-linecap="round" stroke-linejoin="round"/>
<circle cx="43.5" cy="47.5" r="2.5" fill="#CAC238"/>
<circle cx="55.5" cy="47.5" r="2.5" fill="#CAC238"/>
</svg>
