<svg width="100" height="100" viewBox="0 0 100 100" fill="none" xmlns="http://www.w3.org/2000/svg">
<g clip-path="url(#clip0_1_2)">
<path d="M61.9892 36.0925H64.8187C65.9303 36.0925 66.8398 35.183 66.8398 34.0714C66.8398 32.9599 65.9303 32.0504 64.8187 32.0504H61.9892C60.8777 32.0504 59.9682 32.9599 59.9682 34.0714C59.9682 35.183 60.8777 36.0925 61.9892 36.0925Z" fill="#CAC238" stroke="#CAC238" stroke-width="2"/>
<path d="M99.5812 85.5077L97.0548 79.3434C96.2464 77.5245 94.4274 76.3118 92.4064 76.3118H90.1832V36.0925H94.5285C96.4485 36.0925 98.0654 34.7788 98.4696 32.9599C98.8738 31.1409 97.9643 29.2209 96.2464 28.4125L54.2081 8.50491C51.5807 7.19122 48.4481 7.19122 45.6186 8.50491L3.37822 28.4125C1.66031 29.2209 0.750828 31.0398 1.15504 32.9599C1.55926 34.8799 3.17611 36.1936 5.09613 36.1936H9.34037V76.4129H7.52141C5.50034 76.4129 3.68138 77.6255 2.87295 79.4445L0.346614 85.5077C-0.259708 87.1245 -0.0576005 88.8424 0.851881 90.2572C1.76136 91.6719 3.37822 92.4804 4.99507 92.4804H94.9327C96.5495 92.4804 98.1664 91.6719 99.0759 90.2572C100.086 88.9435 100.289 87.1245 99.5812 85.5077ZM5.19718 32.0504L47.3365 12.1428C49.0544 11.3344 50.8734 11.3344 52.4902 12.1428L94.6295 32.0504H88.1621C87.0505 32.0504 86.141 32.9599 86.141 34.0715C86.141 34.2736 86.141 34.3746 86.2421 34.4757C86.2421 34.5767 86.141 34.7788 86.141 34.8799V76.3118H78.0568V48.2189C78.0568 43.7726 74.4188 40.1347 69.9725 40.1347C65.5261 40.1347 61.8882 43.7726 61.8882 48.2189V76.4129H57.8461V48.2189C57.8461 43.7726 54.2081 40.1347 49.7618 40.1347C45.3154 40.1347 41.6775 43.7726 41.6775 48.2189V76.4129H37.6354V48.2189C37.6354 43.7726 33.9974 40.1347 29.5511 40.1347C25.1047 40.1347 21.4668 43.7726 21.4668 48.2189V76.4129H13.3825V36.0925H52.8944C54.006 36.0925 54.9155 35.183 54.9155 34.0715C54.9155 32.9599 54.006 32.0504 52.8944 32.0504H5.19718ZM74.0146 48.2189V76.4129H65.9303V48.2189C65.9303 45.9958 67.7493 44.1768 69.9725 44.1768C72.1956 44.1768 74.0146 45.9958 74.0146 48.2189ZM53.8039 48.2189V76.4129H45.7196V48.2189C45.7196 45.9958 47.5386 44.1768 49.7618 44.1768C51.985 44.1768 53.8039 45.9958 53.8039 48.2189ZM33.5932 48.2189V76.4129H25.5089V48.2189C25.5089 45.9958 27.3279 44.1768 29.5511 44.1768C31.7743 44.1768 33.5932 45.9958 33.5932 48.2189ZM95.7411 88.034C95.6401 88.1351 95.3369 88.5393 94.9327 88.5393H4.99507C4.48981 88.5393 4.2877 88.2361 4.18665 88.034C4.08559 87.933 3.88349 87.5287 4.08559 87.0235L6.61193 81.0613C6.81404 80.6571 7.21825 80.455 7.62247 80.455H92.5074C92.9116 80.455 93.3158 80.6571 93.5179 81.0613L96.0443 87.1245C96.0443 87.5287 95.8422 87.933 95.7411 88.034Z" fill="#CAC238" stroke="#CAC238" stroke-width="2"/>
</g>
<defs>
<clipPath id="clip0_1_2">
<rect width="100" height="100" fill="white"/>
</clipPath>
</defs>
</svg>
