<svg width="100" height="100" viewBox="0 0 100 100" fill="none" xmlns="http://www.w3.org/2000/svg">
<g clip-path="url(#clip0_2_2)">
<path d="M66.7202 68.0064C76.1919 66.9374 81.0505 59.5835 82.9407 54.1296H89.8862C95.463 54.1296 100 49.5926 100 44.0158C100 38.4391 95.463 33.902 89.8862 33.902C89.4276 33.902 88.9697 33.9337 88.5162 33.996C88.17 33.5828 87.795 33.1973 87.4 32.835C87.7764 31.3902 87.9815 29.8774 87.9815 28.3165C87.9815 18.3906 79.9061 10.3155 69.9805 10.3155C68.3239 10.3155 66.669 10.5481 65.0764 10.9987C60.9013 4.67677 53.7542 0.742761 46.0488 0.742761C38.3431 0.742761 31.196 4.67677 27.0209 10.9987C25.4286 10.5481 23.7734 10.3155 22.1168 10.3155C12.1909 10.3155 4.11583 18.3909 4.11583 28.3165C4.11583 38.2421 12.1912 46.3175 22.1168 46.3175H40.0768L38.6556 74.9162H31.3219C27.0057 74.3344 25.0074 72.3226 24.0815 70.5913H27.1892C32.1936 70.5913 36.2653 66.5199 36.2653 61.5155C36.2653 56.5111 32.1936 52.4394 27.1892 52.4394C26.8848 52.4394 26.5808 52.4549 26.2781 52.4855C24.2414 50.1943 21.2845 48.8165 18.1327 48.8165C14.9808 48.8165 12.0242 50.1939 9.98721 52.4855C9.68418 52.4549 9.38014 52.4394 9.07576 52.4394C4.07172 52.4391 0 56.5108 0 61.5152C0 66.5195 4.07172 70.5909 9.07609 70.5909H16.3532C17.4323 74.9546 21.2559 81.0273 30.6485 82.1731C30.795 82.1909 30.9424 82.1997 31.0896 82.1997H38.2936L37.636 95.435C37.5862 96.431 37.9475 97.4037 38.635 98.1263C39.3226 98.8485 40.2761 99.2576 41.2734 99.2576H55.295C56.2919 99.2576 57.2451 98.8488 57.9327 98.127C58.6202 97.4051 58.9815 96.4327 58.9327 95.4371L57.5889 68.0064H66.7202V68.0064ZM7.28384 61.5152C7.28384 60.5266 8.08754 59.7229 9.07609 59.7229C9.36263 59.7229 9.63636 59.7886 9.8899 59.9185C10.7727 60.3707 11.8027 60.4431 12.7401 60.1192C13.6778 59.795 14.4431 59.102 14.8579 58.2007C15.4455 56.9246 16.7313 56.1 18.133 56.1C19.5347 56.1 20.8199 56.9246 21.4074 58.2003C21.8226 59.1017 22.5872 59.7946 23.5249 60.1192C24.462 60.4431 25.4919 60.3707 26.3754 59.9185C26.629 59.7886 26.9024 59.7229 27.1892 59.7229C28.1774 59.7229 28.9815 60.5266 28.9815 61.5152C28.9815 62.503 28.1778 63.3071 27.1892 63.3071H9.07609C8.08788 63.3071 7.28384 62.5034 7.28384 61.5152ZM11.3997 28.3162C11.3997 22.4067 16.2074 17.599 22.1168 17.599C23.8306 17.599 25.4714 17.9946 26.9933 18.7741C27.8771 19.2269 28.9064 19.2993 29.8441 18.9751C30.7818 18.6508 31.5471 17.9579 31.962 17.0562C34.4879 11.571 40.0172 8.02626 46.0485 8.02626C52.0795 8.02626 57.6088 11.5707 60.135 17.0562C60.5502 17.9579 61.3152 18.6505 62.2532 18.9751C63.1902 19.299 64.2209 19.2266 65.1037 18.7741C66.6253 17.9946 68.266 17.599 69.9798 17.599C75.8892 17.599 80.697 22.4067 80.697 28.3162C80.697 28.7798 80.6657 29.236 80.6081 29.6842C80.1111 29.6222 79.6077 29.5872 79.099 29.5872C75.4226 29.5872 71.9825 31.2498 69.6825 33.996C69.2286 33.9333 68.7707 33.9017 68.3121 33.9017C64.5461 33.9017 61.2569 35.9721 59.5162 39.033H22.1168C16.2074 39.0333 11.3997 34.2253 11.3997 28.3162ZM45.1007 91.9737L47.336 46.9956H49.2616L51.47 91.9737H45.1007ZM65.9037 60.7081C64.2879 60.8896 60.2529 60.8445 57.231 60.7714L56.5212 46.3172H58.4663C59.5115 50.7882 63.528 54.1296 68.3128 54.1296H75.0212C73.5576 56.9243 70.8249 60.1525 65.9037 60.7081ZM89.8862 46.8458H68.3128C66.7525 46.8458 65.4828 45.5764 65.4828 44.0158C65.4828 42.4552 66.7525 41.1859 68.3128 41.1859C68.7653 41.1859 69.1976 41.2902 69.5987 41.4953C70.4825 41.9478 71.5118 42.0209 72.4495 41.6963C73.3872 41.3721 74.1525 40.6788 74.5673 39.7774C75.3805 38.0118 77.1589 36.8714 79.0997 36.8714C81.0397 36.8714 82.8189 38.0121 83.632 39.7778C84.0471 40.6791 84.8125 41.3721 85.7502 41.6963C86.6882 42.0205 87.7185 41.9482 88.6013 41.495C89.0013 41.2899 89.4337 41.1859 89.8859 41.1859C91.4465 41.1859 92.7158 42.4552 92.7158 44.0158C92.7162 45.5764 91.4468 46.8458 89.8862 46.8458Z" fill="#CAC238"/>
</g>
<defs>
<clipPath id="clip0_2_2">
<rect width="100" height="100" fill="white"/>
</clipPath>
</defs>
</svg>
